<svg width="606" height="122" viewBox="0 0 606 122" fill="none" xmlns="http://www.w3.org/2000/svg">
<path d="M105.533 93H155.051V81.0617H119.236V61.6491H147.057V49.8146H119.236V32.1668H153.909V20.3323H105.533V93ZM201.047 93.8305C217.034 93.8305 228.142 85.6294 228.142 72.134C228.142 43.7936 188.59 55.8357 188.59 39.745C188.59 34.6582 193.054 31.3363 200.217 31.3363C207.899 31.3363 212.882 35.5925 213.505 41.925H226.585C225.962 28.3258 215.581 19.5018 200.217 19.5018C185.476 19.5018 175.198 27.8067 175.198 39.745C175.198 67.5663 214.231 56.77 214.231 72.3416C214.231 78.7779 208.833 81.8922 201.047 81.8922C192.327 81.8922 186.929 76.7017 186.202 68.6044H173.018C173.745 83.8646 184.541 93.8305 201.047 93.8305ZM263.579 93H277.282V32.1668H299.186V20.3323H241.571V32.1668H263.579V93ZM345.718 93.8305C362.743 93.8305 374.266 84.3837 374.266 66.7358V20.3323H361.394V66.8396C361.394 76.8055 354.958 81.7884 345.718 81.7884C336.479 81.7884 330.147 76.8055 330.147 66.8396V20.3323H317.17V66.7358C317.17 84.3837 328.797 93.8305 345.718 93.8305ZM422.447 37.8764L432.205 64.452H412.689L422.447 37.8764ZM387.982 93H402.1L408.329 76.0788H436.357L442.586 93H456.808L428.779 20.3323H415.907L387.982 93ZM475.177 93H488.88V65.6977H504.556C510.058 65.6977 513.899 69.6425 514.314 75.1445L516.079 93H529.678L527.913 73.5873C527.394 66.9434 524.28 61.6491 519.297 58.4309C525.318 55.4204 529.055 50.2299 529.055 42.7555C529.055 29.5715 520.127 20.3323 504.867 20.3323H475.177V93ZM488.88 53.8633V31.8553H504.244C512.341 31.8553 515.663 36.9421 515.663 42.7555C515.663 48.5689 512.341 53.8633 504.244 53.8633H488.88ZM566.606 93H580.309V62.791L605.328 20.3323H590.587L573.458 50.0222L556.433 20.3323H541.588L566.606 62.791V93Z" fill="white"/>
<path d="M68.0334 52.179C48.4041 52.1076 13.1406 53.8895 0 77.8329C0 37.5407 10.311 19.7827 77.6358 19.7827V42.6641C77.6358 47.9758 73.345 52.1983 68.0334 52.179Z" fill="white"/>
<path d="M66.5814 93.8903C47.371 93.8204 12.8601 95.5643 0 118.997C0 79.5645 10.0909 62.1854 75.9789 62.1854V84.5785C75.9789 89.7768 71.7797 93.9092 66.5814 93.8903Z" fill="white"/>
</svg>
