<svg xmlns="http://www.w3.org/2000/svg" viewBox="0 0 300 152.54"><defs><style>.cls-1{fill:#202020;}</style></defs><title>Asset 2</title><g id="Layer_2" data-name="Layer 2"><g id="Layer_1-2" data-name="Layer 1"><path class="cls-1" d="M0,1H40.25L33.39,14.54H13.69V61.76H0ZM17.11,31.39a7.7,7.7,0,1,1,7.7,7.7A7.66,7.66,0,0,1,17.11,31.39Z"/><path class="cls-1" d="M58.08,1H71.77V48.16H98.84l-6.92,13.6H58.08Z"/><path class="cls-1" d="M130.28,51.58l-5.22,10.18H110.78L142.17,0l31.4,61.76H159.28l-5.22-10.18Zm11.89-23.69-5.9,11.89h11.81Z"/><path class="cls-1" d="M185,51.92l10.43-8.81A15.88,15.88,0,0,0,208,50c4.53,0,7.35-2.14,7.35-5,0-3.07-2.39-5.21-8.47-7.27l-4.27-1.45c-9.84-3.34-15.32-9.24-15.32-17.54,0-11.8,8.82-18.73,21-18.73A25.34,25.34,0,0,1,227.8,8.38l-8.89,9.41a13.53,13.53,0,0,0-10.53-5c-3.67,0-7.35,1.45-7.35,4.62s3,4.7,9.41,7l4.27,1.54c8.81,3.16,14.55,9,14.46,18.13-.08,11-8.9,18.74-21.73,18.74C197.86,62.79,189.65,58.77,185,51.92Z"/><path class="cls-1" d="M248.33,1H262V24.81h24.29V1H300V61.76H286.31V38H262V61.76H248.33Z"/><path class="cls-1" d="M29.38,91.12h20a20.62,20.62,0,1,1,0,41.23H43.07v19.51H29.38Zm19.85,28.49a7.83,7.83,0,0,0,0-15.66H43.07v15.66Z"/><path class="cls-1" d="M95.62,141.68,90.4,151.86H76.12L107.51,90.1l31.39,61.76H124.62l-5.22-10.18ZM107.51,118l-5.9,11.89h11.8Z"/><path class="cls-1" d="M148.37,121.49a31.06,31.06,0,0,1,54.08-20.84l-8,11.43a17.69,17.69,0,0,0-15-8.47c-9.84,0-17.28,8.13-17.28,17.88s7.44,17.88,17.28,17.88a17.69,17.69,0,0,0,15-8.47l8,11.43a31.06,31.06,0,0,1-54.08-20.84Z"/><path class="cls-1" d="M240.58,122.42,262.48,91h15.74l-21.3,30.54,24,30.19H264Zm-17.1-31.3h13.69v60.74H223.48Z"/></g></g></svg>