<?xml version="1.0" encoding="UTF-8" standalone="no"?><!DOCTYPE svg PUBLIC "-//W3C//DTD SVG 1.1//EN" "http://www.w3.org/Graphics/SVG/1.1/DTD/svg11.dtd"><svg width="100%" height="100%" viewBox="0 0 24 24" version="1.1" style="fill-rule:evenodd;clip-rule:evenodd;stroke-linejoin:round;stroke-miterlimit:2;"><g><path d="M1.429,7.117c0.147,-0.074 0.403,-0.197 0.794,-0.577c-0,0 1.363,-1.204 2.63,-1.864c-0,-0 1.346,-0.925 2.836,-0.388l4.624,1.975c1.658,0.832 3.986,1.818 6.505,0.173c0,0 2.591,-1.524 4.036,-4.262c0,0 0.362,-0.589 0,-1.074c0,0 -0.331,-0.312 -0.692,0.243c-0.362,0.554 -1.476,3.222 -5.542,1.975c-4.066,-1.248 -7.319,-3.396 -10.873,-1.351c-3.554,2.044 -4.488,4.088 -4.488,4.088c-0,0 -0.365,0.559 -0.252,0.884c-0,-0 0.053,0.365 0.422,0.178Z" style="fill-rule:nonzero;"/><path d="M1.429,15.017c0.147,-0.074 0.403,-0.197 0.794,-0.577c-0,0 1.363,-1.204 2.63,-1.864c-0,-0 1.346,-0.925 2.836,-0.388l4.624,1.975c1.658,0.832 3.986,1.818 6.505,0.173c0,0 2.591,-1.524 4.036,-4.261c0,-0 0.362,-0.589 0,-1.075c0,0 -0.331,-0.311 -0.692,0.243c-0.362,0.554 -1.476,3.222 -5.542,1.975c-4.066,-1.247 -7.319,-3.396 -10.873,-1.351c-3.554,2.044 -4.488,4.088 -4.488,4.088c-0,0 -0.365,0.559 -0.252,0.884c-0,-0 0.053,0.365 0.422,0.178Z" style="fill-rule:nonzero;"/><path d="M1.429,22.779c0.147,-0.075 0.403,-0.197 0.794,-0.577c-0,-0 1.363,-1.204 2.63,-1.865c-0,0 1.346,-0.924 2.836,-0.387l4.624,1.975c1.658,0.832 3.986,1.817 6.505,0.173c0,-0 2.591,-1.525 4.036,-4.262c0,0 0.362,-0.589 0,-1.074c0,-0 -0.331,-0.312 -0.692,0.243c-0.362,0.554 -1.476,3.222 -5.542,1.975c-4.066,-1.248 -7.319,-3.396 -10.873,-1.352c-3.554,2.045 -4.488,4.089 -4.488,4.089c-0,-0 -0.365,0.559 -0.252,0.883c-0,0 0.053,0.366 0.422,0.179Z" style="fill-rule:nonzero;"/></g></svg>